# Blender 4.2.3 LTS
# www.blender.org
mtllib deathbarrier.mtl
o Cube
v -1.000000 -1.000000 100.018364
v -1.000000 1.000000 100.018364
v -1.000000 -1.000000 -100.018364
v -1.000000 1.000000 -100.018364
v 1.000000 -1.000000 100.018364
v 1.000000 1.000000 100.018364
v 1.000000 -1.000000 -100.018364
v 1.000000 1.000000 -100.018364
vn -1.0000 -0.0000 -0.0000
vn -0.0000 -0.0000 -1.0000
vn 1.0000 -0.0000 -0.0000
vn -0.0000 -0.0000 1.0000
vn -0.0000 -1.0000 -0.0000
vn -0.0000 1.0000 -0.0000
vt -165.501099 -608.076660
vt 140.120911 -613.411377
vt 145.455551 -307.789307
vt -160.166443 -302.454651
vt 150.790253 -2.167290
vt -154.831787 3.167326
vt 156.124924 303.454742
vt -149.497131 308.789398
vt 161.459549 609.076721
vt -144.162415 614.411377
vt -460.453796 8.502015
vt -455.119080 314.124146
vt 456.412292 -7.501942
vt 461.746948 298.120026
s 0
usemtl death_barrier
f 1/1/1 2/2/1 4/3/1 3/4/1
f 3/4/2 4/3/2 8/5/2 7/6/2
f 7/6/3 8/5/3 6/7/3 5/8/3
f 5/8/4 6/7/4 2/9/4 1/10/4
f 3/11/5 7/6/5 5/8/5 1/12/5
f 8/5/6 4/13/6 2/14/6 6/7/6
